<?xml version="1.0" encoding="utf-8"?>
<!-- Generator: Adobe Illustrator 29.3.1, SVG Export Plug-In . SVG Version: 9.03 Build 55982)  -->
<svg version="1.0" xmlns="http://www.w3.org/2000/svg" xmlns:xlink="http://www.w3.org/1999/xlink" x="0px" y="0px"
	 viewBox="0 0 75 100" enable-background="new 0 0 75 100" xml:space="preserve">
<g id="wheat-leaves">
	<path fill="#E5A812" d="M65.4,10.4c0,0-4,4.3-2.4,5.1C64.7,16.3,65.4,10.4,65.4,10.4z"/>
	<path fill="#E5A812" d="M69.4,15.7c0,0-7.1-0.6-6.6,1.4C63.3,19.2,69.4,15.7,69.4,15.7z"/>
	<path fill="#E5A812" d="M60.3,10.3c0,0-0.6,7.1,1.4,6.6S60.3,10.3,60.3,10.3z"/>
	<path fill="#E5A812" d="M69.4,17.7c0,0-8.6-0.1-7.8,2.4S69.4,17.7,69.4,17.7z"/>
	<path fill="#E5A812" d="M57.9,12.2c0,0-0.1,8.6,2.4,7.8C62.8,19.1,57.9,12.2,57.9,12.2z"/>
	<path fill="#E5A812" d="M68,20.8c0,0-8.6,0.2-7.7,2.7S68,20.8,68,20.8z"/>
	<path fill="#E5A812" d="M56.3,15.6c0,0,0.2,8.6,2.7,7.7C61.4,22.4,56.3,15.6,56.3,15.6z"/>
	<path fill="#E5A812" d="M66.7,24c0,0-8.6,0.3-7.6,2.8C60,29.2,66.7,24,66.7,24z"/>
	<path fill="#E5A812" d="M54.9,19c0,0,0.3,8.6,2.8,7.6C60.1,25.7,54.9,19,54.9,19z"/>
	<path fill="#E5A812" d="M65.4,27.1c0,0-8.5,0.6-7.5,3C58.9,32.6,65.4,27.1,65.4,27.1z"/>
	<path fill="#E5A812" d="M53.4,22.6c0,0,0.6,8.5,3,7.5C58.9,29.1,53.4,22.6,53.4,22.6z"/>
	<path fill="#E5A812" d="M64.3,30.3c0,0-8.5,0.9-7.4,3.3C58,35.9,64.3,30.3,64.3,30.3z"/>
	<path fill="#E5A812" d="M51.8,25.7c0,0,0.9,8.5,3.3,7.4C57.5,32,51.8,25.7,51.8,25.7z"/>
	<path fill="#E5A812" d="M63.2,33.5c0,0-8.5,1.2-7.3,3.6C57.1,39.3,63.2,33.5,63.2,33.5z"/>
	<path fill="#E5A812" d="M50.6,29.4c0,0,1.2,8.5,3.6,7.3C56.5,35.5,50.6,29.4,50.6,29.4z"/>
	<path fill="#E5A812" d="M62.4,36.8c0,0-8.5,1.3-7.3,3.6C56.3,42.7,62.4,36.8,62.4,36.8z"/>
	<path fill="#E5A812" d="M49.3,33c0,0,1.6,8.4,3.8,7.2C55.4,38.9,49.3,33,49.3,33z"/>
	<path fill="#E5A812" d="M61.6,40c0,0-8.4,1.6-7.1,3.9C55.7,46.1,61.6,40,61.6,40z"/>
	<path fill="#E5A812" d="M48,36.3c0,0,1.9,8.4,4.1,7S48,36.3,48,36.3z"/>
	<path fill="#E5A812" d="M60.8,43.2c0,0-8.3,1.9-7,4.1C55.1,49.6,60.8,43.2,60.8,43.2z"/>
	<path fill="#E5A812" d="M47.2,40.1c0,0,2.2,8.3,4.3,6.9C53.7,45.5,47.2,40.1,47.2,40.1z"/>
	<path fill="#E5A812" d="M44.2,0c0,0-3.3,4.9-1.5,5.4C44.4,5.9,44.2,0,44.2,0z"/>
	<path fill="#E5A812" d="M49,4.5c0,0-7.1,0.5-6.3,2.5C43.6,9,49,4.5,49,4.5z"/>
	<path fill="#E5A812" d="M39.1,0.7c0,0,0.5,7.1,2.5,6.3C43.6,6.1,39.1,0.7,39.1,0.7z"/>
	<path fill="#E5A812" d="M49.8,6.7c0,0-8.5,1.3-7.3,3.6S49.8,6.7,49.8,6.7z"/>
	<path fill="#E5A812" d="M37,2.9c0,0,1.3,8.5,3.6,7.3S37,2.9,37,2.9z"/>
	<path fill="#E5A812" d="M48.9,9.9c0,0-8.4,1.6-7.1,3.9S48.9,9.9,48.9,9.9z"/>
	<path fill="#E5A812" d="M36,6.6c0,0,1.6,8.4,3.9,7.1C42.2,12.4,36,6.6,36,6.6z"/>
	<path fill="#E5A812" d="M48.1,13.3c0,0-8.4,1.7-7.1,4C42.3,19.6,48.1,13.3,48.1,13.3z"/>
	<path fill="#E5A812" d="M34.9,10.3c0,0,2,8.3,4.2,6.9C41.3,15.9,34.9,10.3,34.9,10.3z"/>
	<path fill="#E5A812" d="M47.9,16.2c0,0-8.3,2-6.9,4.2S47.9,16.2,47.9,16.2z"/>
	<path fill="#E5A812" d="M34.2,14.1c0,0,2.3,8.2,4.5,6.8C40.8,19.4,34.2,14.1,34.2,14.1z"/>
	<path fill="#E5A812" d="M47.3,19.5c0,0-8.2,2.3-6.8,4.5C42,26.1,47.3,19.5,47.3,19.5z"/>
	<path fill="#E5A812" d="M33.2,17.5c0,0,2.6,8.2,4.7,6.6S33.2,17.5,33.2,17.5z"/>
	<path fill="#E5A812" d="M46.8,22.8c0,0-8.2,2.6-6.6,4.7S46.8,22.8,46.8,22.8z"/>
	<path fill="#E5A812" d="M32.8,21.3c0,0,2.9,8.1,4.9,6.5C39.7,26.2,32.8,21.3,32.8,21.3z"/>
	<path fill="#E5A812" d="M46.5,26.2c0,0-8.1,2.7-6.6,4.7S46.5,26.2,46.5,26.2z"/>
	<path fill="#E5A812" d="M32.2,25.1c0,0,3.2,7.9,5.2,6.3S32.2,25.1,32.2,25.1z"/>
	<path fill="#E5A812" d="M45.6,29.9c0,0-8,2.9-6.4,5S45.6,29.9,45.6,29.9z"/>
	<path fill="#E5A812" d="M31.6,28.7c0,0,3.5,7.8,5.4,6.1C38.9,33,31.6,28.7,31.6,28.7z"/>
	<path fill="#E5A812" d="M45.4,33.3c0,0-7.9,3.2-6.2,5.2S45.4,33.3,45.4,33.3z"/>
	<path fill="#E5A812" d="M31.5,32.5c0,0,3.7,7.7,5.6,5.9C39,36.6,31.5,32.5,31.5,32.5z"/>
	<path fill="#E5A812" d="M9.1,4.3c0,0,4.4,4,2.8,4.9C10.3,10,9.1,4.3,9.1,4.3z"/>
	<path fill="#E5A812" d="M5.6,9.8c0,0,7-1.2,6.7,0.9S5.6,9.8,5.6,9.8z"/>
	<path fill="#E5A812" d="M14.3,3.8c0,0,1.2,7-0.9,6.7C11.2,10.1,14.3,3.8,14.3,3.8z"/>
	<path fill="#E5A812" d="M5.7,11.8c0,0,8.5-0.7,7.9,1.8S5.7,11.8,5.7,11.8z"/>
	<path fill="#E5A812" d="M16.8,5.4c0,0,0.7,8.5-1.8,7.9S16.8,5.4,16.8,5.4z"/>
	<path fill="#E5A812" d="M7.4,14.8c0,0,8.5-0.4,7.8,2.1C14.5,19.4,7.4,14.8,7.4,14.8z"/>
	<path fill="#E5A812" d="M18.7,8.8c0,0,0.4,8.5-2.1,7.8C14.1,15.9,18.7,8.8,18.7,8.8z"/>
	<path fill="#E5A812" d="M9,17.9c0,0,8.6-0.3,7.8,2.2C16,22.6,9,17.9,9,17.9z"/>
	<path fill="#E5A812" d="M20.3,12c0,0,0.3,8.6-2.2,7.8S20.3,12,20.3,12z"/>
	<path fill="#E5A812" d="M10.1,21c0,0,8.6,0,7.7,2.4S10.1,21,10.1,21z"/>
	<path fill="#E5A812" d="M22,15.4c0,0,0,8.6-2.4,7.7S22,15.4,22,15.4z"/>
	<path fill="#E5A812" d="M11.5,24c0,0,8.6,0.3,7.6,2.7C18.2,29.2,11.5,24,11.5,24z"/>
	<path fill="#E5A812" d="M23.6,18.6c0,0-0.3,8.6-2.7,7.6S23.6,18.6,23.6,18.6z"/>
	<path fill="#E5A812" d="M12.4,27.3c0,0,8.5,0.7,7.5,3.1S12.4,27.3,12.4,27.3z"/>
	<path fill="#E5A812" d="M25.3,22.3c0,0-1,8.5-3.3,7.4C19.6,28.6,25.3,22.3,25.3,22.3z"/>
	<path fill="#E5A812" d="M13.4,30.5c0,0,8.5,0.8,7.5,3.2C19.8,36.1,13.4,30.5,13.4,30.5z"/>
	<path fill="#E5A812" d="M26.8,25.9c0,0-1.3,8.5-3.6,7.3C20.8,32,26.8,25.9,26.8,25.9z"/>
	<path fill="#E5A812" d="M14.4,33.7c0,0,8.5,1.1,7.4,3.4C20.7,39.4,14.4,33.7,14.4,33.7z"/>
	<path fill="#E5A812" d="M28.1,29.2c0,0-1.6,8.4-3.9,7.1S28.1,29.2,28.1,29.2z"/>
	<path fill="#E5A812" d="M15.5,36.9c0,0,8.4,1.4,7.2,3.7C21.5,42.9,15.5,36.9,15.5,36.9z"/>
	<path fill="#E5A812" d="M29,32.9c0,0-1.9,8.3-4.1,7S29,32.9,29,32.9z"/>
	<path fill="#E5A812" d="M15.9,40.3c0,0,8.4,1.4,7.2,3.7C21.9,46.2,15.9,40.3,15.9,40.3z"/>
	<path fill="#E5A812" d="M29.9,36.6c0,0-2.4,8.2-4.5,6.7C23.3,41.8,29.9,36.6,29.9,36.6z"/>
</g>
<g id="wheat-stalk">
	<g>
		<path fill="#C8A008" d="M64.4,12.6C51.3,41.2,48.9,69,49.9,100c0,0-3,0-3,0C47,68.2,50.1,41.5,64.4,12.6L64.4,12.6z"/>
	</g>
	<g>
		<path fill="#C8A008" d="M36,100c0.2-14.5,0.4-34.6,0.9-48.9c0.3-16.3,2.2-32.6,6.5-48.4c-5.9,23.9-5.1,48.5-4.8,72.9
			c0,0,0.4,24.4,0.4,24.4H36L36,100z"/>
	</g>
	<g>
		<path fill="#C8A008" d="M10.8,7.2C28,34.7,28.9,68.5,29.1,100c0,0-3,0-3,0C26.9,68.5,27.1,35.2,10.8,7.2L10.8,7.2z"/>
	</g>
</g>
</svg>
