<?xml version="1.0" encoding="utf-8"?>
<!-- Generator: Adobe Illustrator 29.3.1, SVG Export Plug-In . SVG Version: 9.03 Build 55982)  -->
<svg version="1.0" id="Layer_1" xmlns="http://www.w3.org/2000/svg" xmlns:xlink="http://www.w3.org/1999/xlink" x="0px" y="0px"
	 viewBox="0 0 931 992.4" enable-background="new 0 0 931 992.4" xml:space="preserve">
<path fill="#E6E7E8" d="M1.4,992.4c-0.8,0-1.4-0.6-1.4-1.4c-0.2-11.6,2.5-36.1,4.3-42.1c0.7-2.2,1-4.9,0.9-8.1
	c0-3.4,1.1-6.8,3.2-9.5c1.4-1.9,2.5-3.8,3.1-5.8c0.5-1.7,0.9-3.4,1.3-5.1c1.1-4.6,2-8.5,4.5-10.5c1.7-1.3,3.3-3.3,4.4-4.6
	c0.6-0.8,1.6-1.2,2.6-1.2c0.6,0,1.2,0.2,1.8,0.5c0.9,0.5,2,0.8,3.1,0.8c2.5,0,5.4-1.4,5.7-5.5c0.4-5.2,3.2-9.1,5.5-11.5
	c0.9-1,1.4-2.3,1.3-3.7c-0.3-2.9-0.2-7,1.9-9.4c1.1-1.3,1.5-2.6,1.1-3.7c-0.4-1.1,0-2.3,0.9-3c0.1-0.1,0.2-0.3,0.3-0.4
	c0.4-1.5,1.7-2.6,3.2-2.8c1.9-0.2,3.2-1.2,3.9-2.9c0.7-1.8,0.2-3.6-1.6-5.3c-0.6-0.6-0.9-1.3-0.9-2.2c0-0.8,0.4-1.7,1-2.2
	c3.1-2.8,4.5-6.3,5.1-8.7c0.7-2.6,2-4.8,3.9-6.4c1.4-1.1,2.3-2.3,2.7-3.5c0.9-2.7,3.3-6.2,4.6-8c0.5-0.8,1-1.6,1.3-2.4
	c3.1-7.6,8.3-12.7,10.4-14.6c0.1-0.1,0.1-0.2,0-0.4c-0.7-1.2-1.6-2.3-2.3-3l-1.1-0.6l1,0.6c-3,5.1-9.3,12.5-11.9,15.5
	c-0.3,0.3-0.6,0.5-1,0.5c-0.5,0-0.9-0.2-1.1-0.6c-0.3-0.4-0.3-0.8-0.1-1.3c4.6-11.7,14.1-19.5,19.4-23.1c1.9-1.3,3.5-3,4.6-4.9
	c1.5-2.6,4.3-6.7,9.5-11.5c7.3-6.8,18.4-15.9,22.8-19.5c0.6-0.5,1.1-1.1,1.3-1.7c1-2.2,2.8-3.8,4.1-4.8c1.1-0.8,1.8-2,2.1-3.3
	c2.5-10.6,3.8-18.1,3.5-20.3c-0.1-0.7-0.3-1.5-0.5-2.5c-1.1-5.5-3-14.6,2-20.1c2.5-2.7,5.1-8.8,7.3-17.1c1-3.7,2.5-7.2,4.5-10.4
	c1.9-3,4.1-7.3,4.1-10.7c0-6.9,0.8-14.6,9.7-18.5c4.7-2,7.2-5.4,8.5-7.9c0.7-1.4,2.2-2.4,3.8-2.4c0.4,0,0.8,0.1,1.1,0.2
	c0.7,0.2,1.4,0.3,2.3,0.4c0.2,0,0.5,0,0.7,0c1.8,0,3.5-0.6,4.8-1.8c4-3.5,11.1-9.5,14.7-11.3c2.6-1.3,6-4.1,8.4-6.3
	c1.8-1.6,3.1-3.8,3.6-6.3c0.6-3,1.5-5.5,2.5-7.4c1-1.8,2-5.1,2.8-9.4c0.5-2.7,1.6-5.3,3.1-7.7c5.5-8.5,7.8-17.6,8.9-23.8
	c0.7-3.9,2.9-7.3,6.2-9.4c2.2-1.4,5.2-3.8,6.6-7.2c3.9-9.3,13.9-13.3,33.5-13.3c16.8,0,25.1-6.3,27.9-9c1.1-1.1,2.6-1.6,4.2-1.6
	l0.2,0c3.5,0,5.6-1.5,6.8-2.7c0.9-1,2.2-1.6,3.6-1.8c8.2-1,14.4-5.5,18.8-13.6c2.8-5.1,6.2-8,8.7-9.6c1.4-0.9,2.6-1.9,3.6-2.9
	c3-3.1,8.9-8.5,14.2-10.3c4.9-1.6,14.7-7.7,20-11.2c2.2-1.4,4-3.4,5.2-5.7c2.6-4.9,4.7-8.1,6.3-9.3c0.3-0.3,0.7-0.5,1.1-0.9
	c3.3-2.5,9.3-7.2,13-15.5c3.2-7.2,10.1-15.6,14-19.9c1.2-1.3,2.1-2.8,2.8-4.3c1.6-3.5,4.8-10.1,7.3-14.3c1.8-3,3.4-9.5,4.3-17.8
	c0.2-1.7-0.3-3.4-1.4-4.8c-3.2-3.9-5.4-7.4-6.3-9.1c-0.6-1.1-1.5-2-2.5-2.6c-0.6-0.4-1.4-0.7-2.2-1c-1.4-0.6-2.5-1.7-3.1-3.1
	c-0.5-1.4-0.4-3,0.3-4.4c5.1-9.7,3.1-19.5,1.4-24.4c-0.7-2-0.5-4.2,0.6-6.1c0.6-1,0.8-2.1,0.9-2.9c0.2-1,0.4-2,0.7-2.8
	c1.3-3.4,0.4-6.4-0.6-8.2c-1-1.8-0.6-4,0.9-5.4c1.9-1.8,2.4-3.4,2.4-4.4c0-1.3,0.5-2.7,1.4-3.7c1.1-1.3,2.5-3,3.5-4.3
	c0.5-0.7,0.9-1.4,1-2.2c1.5-8.2,11.5-18.3,15.7-22.2c1-0.9,1.6-2.1,1.7-3.4c0.3-3.6,1.2-5.8,2.9-6.4c0.6-0.2,1.1-0.6,1.5-1.2
	c3.6-5.3,1.6-10.2,0-12.7c-0.9-1.4-0.7-3.3,0.6-4.6c2.2-2.2,1.2-5.2,0.1-7.3c-0.9-1.7-0.3-3.9,1.4-4.8c5.4-3,8.2-6.5,9.7-8.9
	c1.4-2.3,3.2-4.3,5.4-6.2c12.3-10.6,20.2-19.1,21.1-22.6c0.5-2.1,1.3-4.1,2.3-5.8c1.4-2.5,4.1-4.1,7.1-4.1c0.9,0,1.7,0.1,2.6,0.4
	l1.2,0.4c0.1,0,0.2,0,0.3,0c0.3,0,0.6-0.2,0.8-0.4l0.6-1c1.9-2.9,4.5-5.3,7.7-6.7c14-6.4,60.9-28.2,73.9-39.2
	c9.1-7.7,13.2-15,15.1-19.7c1.9-4.9,4.3-9.8,7.4-14.9c6.9-11.6,18.8-32.4,20.4-40.4c2.4-12.2,4.8-21.8,8.5-28.6
	c1.9-3.4,3-6.5,3.7-8.4c0.6-1.6,0.9-3.3,1.1-5c1.4-12.4,5.7-15.7,8.1-15.7c0.6,0,1.2,0.2,1.6,0.6c0.3,0.3,0.9,0.4,1.3,0.4
	c0,0,0,0,0,0c0.4,0,0.8-0.1,1-0.4c1.3-1.5,3.5-2.2,6.5-2.2c1.6,0,3.1,0.2,4.1,0.4c0.2,0,0.4,0,0.5,0c0.7,0,1.3-0.2,1.8-0.6
	c1.2-0.9,2.4-2,3.1-2.7c0.2-0.2,0.4-0.4,0.5-0.6c1.5-2.2,4-3.3,7.2-3.3c2.2,0,4.2,0.5,5.6,1c0.7,0.2,1.2,0.8,1.2,1.5
	c0.1,0.7-0.3,1.4-0.9,1.8c-3.9,2.3-3.3,6.8-2.4,8.6c0.4,0.7,0.9,1.6,1.5,2.5c1.4,2.2,2.9,4.5,2.9,6.5c0,0.3,0.1,0.8,0.2,1.3
	c0.7,2.5,2.3,4.6,4.6,6.1c4,2.6,11.3,7.6,14.8,12.3c3.3,4.5,10.4,8.5,14.4,10.4c1.2,0.6,2.5,0.9,3.8,0.9c0.2,0,0.3,0,0.5,0
	c0.7,0,1.3-0.1,2-0.1c1.4,0,2.7,0.1,3.8,0.3c1.3,0.2,2.7,0.7,4,1.4c0.8,0.4,1.6,0.6,2.5,0.6c0.7,0,1.3-0.1,1.9-0.4
	c2.1-0.9,5.3-2.2,8.7-2.8c2.2-0.4,4.6-1.3,7.4-2.6c1-0.5,2.2-0.8,3.4-0.8c2,0,3.9,0.8,5.4,2.2c1,1,2.2,1.6,3.5,1.8
	c0.1,0,0.2,0,0.3,0c1.9,0,3.4-2.8,4.2-4.4c0.7-1.4,2.1-2.4,3.7-2.4c1,0,2,0.4,2.7,1.1c5.8,5.4,13.3,5.8,15.5,5.8
	c2.7,0,4.6-0.5,5.2-1c2.1-1.7,5-2.1,7.1-2.1c0.7,0,1.3-0.4,1.6-1.1c0.4-0.9,0.9-1.6,1.4-2.2c0.4-0.4,1-0.8,1.6-1.3
	c1.2-0.8,2.6-1.8,2.9-3c0.3-1.1,1-2.4,2-3.8c0.6-0.8,1.5-1.2,2.4-1.2c1.2,0,2.2,0.6,2.7,1.7c0.9,1.7,1.4,3.5,1.7,5.2
	c0.1,1,0.4,2.1,0.8,3.2c0.9,2.3,1.1,4.9,0.6,7.4c-0.3,1.3,0.2,2.6,1.2,3.9c0.5,0.6,1,0.9,1.6,0.9c0.5,0,1.1-0.3,1.8-0.8
	c1.1-0.8,2.3-1.2,3.7-1.2c1.5,0,3,0.5,4.1,1.5c2.1,1.8,4,2.8,5.3,2.8c1.3,0,3.1-1.2,5.1-3.3c1.2-1.3,2.9-2.1,4.8-2.1
	c1,0,2,0.2,2.9,0.7c1,0.5,2.2,0.8,3.5,0.8c0.2,0,0.4,0,0.6,0c0.1,0,0.2,0,0.3,0c1.4,0,2.8,0.7,3.6,1.8c1.3,1.8,3.3,4.7,5.5,8.8
	c1.2,2.2,2.9,3.4,4.9,3.4c0.5,0,1-0.1,1.5-0.2c0.2-0.1,0.5-0.1,0.7-0.1c1.4,0,2.6,1,2.9,2.3c0.5,2,1.3,3,2.5,3.1
	c1.3,0.1,2.4,1.3,2.4,2.7c0,0.9,0.2,1.7,0.7,2.1c0.3,0.3,0.8,0.5,1.4,0.5c1.4,0,2.8,0.4,4.2,1.2c0.9,0.6,1.6,1.5,1.6,2.6
	c0.1,1.1-0.4,2.1-1.2,2.8c-0.3,0.3-0.7,0.5-1.1,0.8c-0.4,0.3-0.7,0.7-0.9,1.1c-0.4,1.1-1.2,2.3-2.5,3.6c0,0,0,0.1,0,0.1
	c0,0.1,0,0.1,0,0.1c1,0.7,2.5,2,3.2,3.9c0.5,1.2,1.9,2.6,4,3.9c0.7,0.5,1.2,1.3,1.2,2.1c0,0.9-0.3,1.7-1,2.2
	c-0.7,0.5-1.6,1.1-2.6,1.7c-0.5,0.3-0.7,0.7-0.8,1.2c0,0.5,0.2,1,0.6,1.4c4.6,3.6,4.2,8.3,3.8,10.2c-0.1,0.6,0,1.3,0.2,1.8
	c3.6,7.2,3.5,15.9-0.1,23.2c-1.1,2.2-0.8,3.9,0.8,5.4c0.7,0.6,0.9,1.5,0.7,2.4c-0.2,0.8-0.8,1.5-1.6,1.8c-0.5,0.2-1,0.4-1.6,0.6
	c-0.7,0.3-0.9,0.9-0.8,1.4c0,0.2,0.2,1,1.1,1.2c0.4,0.1,0.9,0.1,1.3,0.1c0.3,0,0.5,0,0.8-0.1c0.4-0.1,0.7-0.1,1.1-0.1
	c2.3,0,3.2,1.5,3.3,2.9c0,0.2,0.2,0.4,0.3,0.6c1.6,1.9,1.6,3.7,1.3,4.8c0,0.1,0,0.3,0.1,0.3c0.9,0.7,1.3,1.7,1.3,2.8
	c0,0.8-0.3,1.9-2,2.8c-0.6,0.3-1,0.9-1,1.5c-0.1,1.4-0.6,3.5-2.1,5.4c-0.6,0.8-1.1,1.9-1.4,3.3c-0.4,1.8,0.4,3.8,1.9,5.1
	c2,1.6,3.3,3.8,3.8,6.3c0.4,1.9,1.5,3.5,3.3,4.6c2.4,1.6,3.8,4.3,3.6,7c0,0.7-0.1,1.2-0.3,1.6c-0.4,1.3-1.9,2.1-4.6,2.5l7,11.8
	c0.9,1.5,2.3,2.6,3.9,3.1c3.9,1.2,6.5,2.4,7.8,3.7c1.1,1.1,4.5,3.7,9.7,7.2c1.1,0.8,1.8,2,2,3.3c0.1,1.4-0.4,2.7-1.3,3.6l-2.9,2.9
	c-1.4,1.4-3.2,2.5-5.3,3.3c-2.3,0.8-3.6,3.2-3.6,7c0,5,2.6,8,4.8,9.6c0.7,0.5,1,1.4,0.7,2.2c-0.3,0.8-1,1.4-1.9,1.4
	c-0.7,0-1.4,0.3-2,0.7c-1,0.8-2.8,1.8-5.2,1.8c-1.3,0-2.6-0.3-4-0.8c-1.4-0.6-3.1-0.8-5.1-0.8c-1.5,0-3.2,0.2-5,0.5
	c-0.8,0.2-1.6,0.2-2.3,0.2c-1.7,0-3.4-0.4-4.9-1.1c-1.7-0.8-5-2.1-10.8-3.6c-2.1-0.5-4.2-0.8-6.1-0.8c-3.9,0-6.6,1.1-8.1,2
	c-0.9,0.5-1.8,0.8-2.8,0.8c-1,0-1.9-0.2-2.7-0.7c-3.7-2.2-9.9-2.6-14.4-2.6c-0.7,0-1.4,0-2.2,0c-1.7,0.1-3.4,0.5-5,1.4
	c-2.7,1.5-6.6,2.3-11.4,2.3c-0.8,0-1.6,0-2.5-0.1c-0.2,0-0.3,0-0.5,0c-5.3,0-9.8,4.4-10,9.7l-0.1,4.5c-0.2,7.3-5.6,13.3-12.8,14.4
	l-12.1,1.8c-8.1,1.2-14.2,8.2-14.2,16.4v1c0,0.9-0.7,1.7-1.6,1.7c-1.8,0.1-3.4,0.5-4.9,1.2c-0.3,0.1-0.4,0.4-0.4,0.5
	c0,0.1,0,0.4,0.2,0.7c0.5,0.5,0.9,0.9,1.2,1.4c0.5,0.8,0.6,1.7,0.2,2.6c-0.4,0.9-1.1,1.5-2,1.7l-1.1,0.2l0.4,0.3
	c0.8,0.6,1.3,1.5,1.3,2.5c0,1.7,0.4,3.2,1.2,4.4c0.1-0.3,0.2-0.6,0.3-0.9c0.4-1,1.4-1.7,2.4-1.7c1.3,0,2.3,0.9,2.5,2.1
	c0.1,0.4,0.1,0.7,0.2,1.1c0.4-0.2,0.8-0.3,1.2-0.3c0.3,0,0.7,0.1,1,0.2c1.9,0.9,5.1,3.1,5.6,8.4c0.4,4.5-2.4,6.3-4.5,7.6
	c-1.6,1-2.5,1.7-2.7,2.9c-0.3,2,0.6,3.6,1.3,4.7c1.1,1.6,0.8,3.9-0.7,5.2c-2.7,2.3-8.8,6.3-18.5,6.7c-13.9,0.6-27.8,8.5-31.5,13.9
	c-4.7,6.7-8.5,10.1-12.6,11.3c-6.8,1.9-11.8,4.2-13.9,6.3c-2.1,2.1-6.2,5.6-8.4,7.5c-1.2,1-2.5,1.8-3.8,2.4
	c-2.1,0.9-3.9,2.1-5.4,3.6c-1.8,1.7-2.7,4-2.6,6.4c0.3,5.7-2.9,10.4-5.7,12.6c-1.3,1.1-3.7,4.3-6.6,9.2c-0.9,1.6-2.6,2.5-4.5,2.5
	c-1,0-2-0.3-2.9-0.9l-1.1-0.8c-0.8,0.5-1.6,0.8-2.4,0.8c-0.8,0-1.9-0.3-2.8-1.5c-1.1-1.5-1.2-3.7-0.2-6c0,0,0,0,0-0.1
	c0,0,0-0.1-0.1-0.1c-0.7-0.2-1.5-0.3-2.4-0.3c-2.2,0-4.9,0.7-8,2c-2.7,1.2-6.4,1.9-9,2.2c-0.3,0-0.5,0.1-0.8,0.1
	c-1.3,0-2.5-0.4-3.5-1.2c-0.8-0.6-1.6-1-2.4-1c-1,0-1.9,0.6-2.4,1.1c-0.7,0.6-1.5,1-2.4,1c-0.3,0-0.6,0-0.9-0.1
	c-1.3-0.3-3.4-0.7-6.1-0.7c-2.4,0-4.5,1.6-5.9,3c-0.8,0.8-1.8,1.2-2.9,1.2c-0.7,0-1.4-0.2-2.1-0.6c-1.2-0.7-2.6-0.9-3.5-0.9
	c-0.7,0-1.3,0.3-1.8,0.9c-1.2,1.6-3.2,3.5-5.5,3.5c-2.3,0-5.3-1.6-7.4-3c-0.2-0.2-0.5-0.2-0.8-0.2c-0.1,0-0.3,0-0.4,0.1
	c-1.2,0.4-2.3,0.6-3.4,0.6c-1.8,0-3.4-0.6-4.9-1.7c-0.6-0.5-1.4-0.7-2.2-0.7c-1,0-1.9,0.4-2.6,1c-3,2.7-7.4,6.3-10.9,8.1
	c-3.6,1.8-8.3,2.2-11.6,2.2c-1.4,0-2.5-0.1-3.3-0.1c-0.2,4.9-4.7,6.3-8,7.4l-0.7,0.2c-3.4,1.1-5,2.2-8.4,6.8
	c-2.1,2.9-4.6,3.5-6.2,3.5c-0.6,0-1.1-0.1-1.6-0.2c0,0-0.1,0-0.1,0c-0.1,0-0.2,0-0.3,0.2c-2.4,5.3-3.9,5.8-4.4,6
	c-0.6,0.2-1.4,0.3-2.3,0.3c-0.4,0-0.8,0-1.3-0.1c-0.1,0-0.2,0-0.3,0c-0.5,0-1,0.1-1.4,0.4c-1.3,0.8-3.6,2.4-5.1,3.9
	c-0.3,0.3-0.8,0.8-1.2,1.3c-4.4,4.5-9.3,9.4-12.4,10.4c-2.7,0.9-5.7,2.1-7,2.7v174.2c0,0.9-0.7,1.6-1.6,1.6H295.5v161.3
	c0,0.8-0.5,1.4-1.3,1.5c-1.6,0.2-10.1,1.7-18.5,7c-3.6,2.3-7.2,3.4-10.6,3.4c-0.4,0-0.8,0-1.3-0.1c-0.2,0-0.4,0-0.6,0
	c-2.1,0-4,0.9-5.2,2.5c-2.2,2.8-5.2,5.1-8.9,6.8c-5.9,2.7-12.1,7.4-15.3,9.9c-1.4,1.1-2.1,2.8-1.9,4.6c0.3,3.2-0.9,5.1-2,6.1
	c-0.9,0.8-1.1,2.1-0.6,3.3c7.5,17.6,7.9,80.2,7.9,87.3c0,0.4-0.1,0.7-0.4,0.9c-0.3,0.3-0.6,0.4-0.9,0.4l-226.7,0
	c-2.3,6.9-5.3,19.5-6.4,24.6C2.7,992,2.1,992.4,1.4,992.4z"/>
</svg>
