<?xml version="1.0" encoding="utf-8"?>
<!-- Generator: Adobe Illustrator 29.3.1, SVG Export Plug-In . SVG Version: 9.03 Build 55982)  -->
<svg version="1.0" id="Layer_1" xmlns="http://www.w3.org/2000/svg" xmlns:xlink="http://www.w3.org/1999/xlink" x="0px" y="0px"
	 viewBox="0 0 317.2 129.2" enable-background="new 0 0 317.2 129.2" xml:space="preserve">
<g>
	<path fill="#e2d3b4" d="M47.4,129.2c-9,0-16.8-1.2-23.6-3.7c-6.8-2.5-12.2-6.4-16.3-11.7c-4.1-5.3-6.6-12.2-7.5-20.6l32.1-5.3
		c0.3,2,0.9,4,1.8,6.1c0.9,2.1,2.3,3.9,4.2,5.3c2,1.4,4.7,2.1,8.1,2.1c2.8,0,5-0.5,6.7-1.6c1.7-1.1,3-2.6,3.8-4.5
		c0.8-1.9,1.2-3.9,1.2-6.1c0-2.9-1.2-5.6-3.6-8.2c-2.4-2.6-6.2-3.9-11.2-3.9H31.7V50.2h8.8c4,0,7.7-1,11-3.1c3.3-2.1,5-5.1,5-9.1
		c0-3.3-0.9-5.9-2.8-7.7c-1.8-1.8-4.3-2.7-7.4-2.7c-2.9,0-5.1,0.7-6.8,2.2c-1.7,1.5-2.8,3.2-3.5,5.2c-0.7,2-1.2,3.6-1.4,5L3.1,33.5
		c2-11.4,6.6-19.8,14-25.3C24.4,2.7,34.5,0,47.3,0c9,0,16.5,1.5,22.7,4.4c6.2,2.9,10.8,7,14,12.1c3.2,5.1,4.7,11.1,4.7,17.9
		c0,7.7-1.8,13.8-5.3,18.3c-3.5,4.5-8,7.7-13.4,9.7c7.4,2.6,12.8,6.6,16.2,11.9c3.5,5.3,5.2,11.6,5.2,19c0,7.1-1.8,13.4-5.4,18.9
		c-3.6,5.5-8.7,9.7-15.3,12.7C64.2,127.7,56.4,129.2,47.4,129.2z"/>
	<path fill="#e2d3b4" d="M149.9,129.2c-9.3,0-17.5-1.6-24.7-4.9c-7.1-3.3-12.7-7.9-16.7-13.9c-4-6-6-13.1-6-21.2
		c0-7.1,1.6-13.2,4.7-18.2c3.1-5,7.6-9,13.6-12c-5.1-2.8-8.9-6.2-11.5-10.4s-3.9-9.2-3.9-15.2c0-7.5,2-13.7,6-18.6
		c4-4.9,9.3-8.7,16-11.1c6.7-2.5,14.2-3.7,22.5-3.7c7.8,0,15.1,1.2,21.8,3.5c6.7,2.4,12.2,6,16.4,10.9c4.2,4.9,6.3,11.2,6.3,19.1
		c0,6.1-1.4,11.2-4.1,15.4c-2.7,4.1-6.5,7.5-11.3,10.2c6,3,10.5,7,13.6,12c3.1,5,4.7,11.1,4.7,18.2c0,8.2-2,15.2-6,21.2
		c-4,6-9.6,10.6-16.7,13.9C167.4,127.6,159.2,129.2,149.9,129.2z M149.9,101.3c4.5,0,8-1.3,10.6-3.9c2.6-2.6,3.9-6,3.9-10.1
		c0-4.5-1.3-7.9-3.9-10.4c-2.6-2.4-6.1-3.6-10.6-3.6c-4.5,0-8.1,1.2-10.7,3.6c-2.6,2.4-4,5.9-4,10.4c0,4.1,1.3,7.5,4,10.1
		C141.9,100,145.4,101.3,149.9,101.3z M149.9,50.7c3.4,0,6.2-1.1,8.3-3.2c2.1-2.1,3.1-5.1,3.1-8.9c0-4-1-7-3.1-9
		c-2.1-2-4.8-2.9-8.3-2.9c-3.5,0-6.2,1-8.3,3.1c-2.1,2.1-3.1,5-3.1,8.8s1,6.8,3.1,8.9C143.7,49.7,146.5,50.7,149.9,50.7z"/>
	<path fill="#e2d3b4" d="M231,57.3c-6.9,0-12.7-2.2-17.3-6.7c-4.6-4.5-6.9-10.5-6.9-18.1c0-7.5,2.3-13.5,6.9-17.9
		c4.6-4.5,10.4-6.7,17.3-6.7c7,0,12.8,2.2,17.4,6.7c4.6,4.5,6.9,10.5,6.9,17.9c0,7.6-2.3,13.6-6.9,18.1C243.8,55,238,57.3,231,57.3z
		 M231,49.5c4.4,0,7.9-1.5,10.5-4.5c2.6-3,4-7.2,4-12.6c0-5.4-1.3-9.6-4-12.5c-2.6-2.9-6.2-4.4-10.5-4.4c-4.3,0-7.7,1.5-10.4,4.4
		c-2.6,2.9-4,7.1-4,12.5c0,5.4,1.3,9.6,4,12.6C223.3,48,226.7,49.5,231,49.5z M220.5,128L291.4,9h12.1l-70.7,119H220.5z
		 M293.1,129.2c-6.9,0-12.7-2.2-17.3-6.7c-4.6-4.5-6.9-10.5-6.9-18.1c0-7.6,2.3-13.6,6.9-18.1c4.6-4.5,10.4-6.7,17.3-6.7
		c6.9,0,12.6,2.2,17.3,6.7c4.6,4.5,6.9,10.5,6.9,18.1c0,7.6-2.3,13.6-6.9,18.1C305.7,127,300,129.2,293.1,129.2z M293.1,121.3
		c4.4,0,7.8-1.5,10.4-4.4c2.6-2.9,3.9-7.1,3.9-12.5c0-5.4-1.3-9.6-3.9-12.5c-2.6-2.9-6.1-4.4-10.4-4.4c-4.3,0-7.7,1.5-10.4,4.4
		c-2.7,2.9-4.1,7.1-4.1,12.5c0,5.4,1.4,9.6,4.1,12.5C285.4,119.8,288.8,121.3,293.1,121.3z"/>
</g>
</svg>
